<?xml version="1.0" encoding="UTF-8" standalone="no"?>
<svg xmlns:rdf="http://www.w3.org/1999/02/22-rdf-syntax-ns#" xmlns="http://www.w3.org/2000/svg" height="631" viewBox="0 0 574 631" width="574" version="1.1" xmlns:cc="http://creativecommons.org/ns#" xmlns:dc="http://purl.org/dc/elements/1.1/">
<path d="m397.63 630.01c-23.868-3.0147-41.723-16.966-48.757-38.098-1.9082-5.7325-2.8717-6.2139-7.734-3.8647-11.635 5.6216-22.162-10.996-11.812-18.648 1.1954-0.88375 1.7235-1.7869 1.1735-2.0071-9.3176-3.7294-11.77-13.19-4.9619-19.142 1.4154-1.2375 2.0778-2.25 1.4722-2.25-4.5697 0-7.8498-10.102-4.6853-14.43 1.4845-2.0302-1.5939-14.795-8.6985-36.07-13.555-40.591-11.141-77.387 6.5436-99.715 3.8224-4.8262 3.7309-4.9036-4.4342-3.7472-6.4261 0.91005-31.186-0.96197-33.759-2.5525-4.7185-2.9162 0.6366-5.859 8.0188-4.4066 29.984 5.8991 61.581-17.567 72.299-53.694 1.347-4.5402-0.008-31.432-1.6677-33.091-1.7445-1.7445-21.906 3.6355-23.51 6.2736-25.793 42.413-85.487 12.568-88.849-44.421-1.9646-33.307 11.963-46.766 35.582-34.385 3.3984 1.7814 6.3773 3.2389 6.6199 3.2389 1.1279 0-3.129-9.5645-8.9015-20-16.97-30.678-16.129-37.749 9.3221-78.375 3.3505-5.3482 27.457-14.3 49.109-18.236 59.652-10.844 100.86-5.0588 135.5 19.022l6 4.1711 3.5-2.3799c6.4572-4.3907 22.647 0.40258 27.894 8.2586 1.3168 1.9715 2.5908 3.3881 2.831 3.1478 1.3635-1.3635-7.3451-11.691-9.2439-10.963-0.70698 0.27129-2.5411-1.0805-4.0759-3.004-2.5298-3.1704-2.9122-3.3404-4.0923-1.8194-1.3408 1.7282-4.0971-0.45243-8.0995-6.4081-1.1499-1.711-1.2169-1.5959-0.63212 1.086 1.2027 5.5154 1.1007 5.6795-4.4231 7.1164-4.9031 1.2754-5.5597 1.2376-8-0.46116-11.304-7.8692-33.806-17.822-48.941-21.648-25.83-6.5297-68.31-8.9034-72.35-4.0427-1.4154 1.7028-1.9869 1.8026-4.297 0.75-3.6124-1.6459-4.2512-1.5426-4.8602 0.78596-0.65602 2.5086-3.0058 2.5026-8.5694-0.022-5.3067-2.408-5.0657-2.4067-4.4424-0.0234 0.57475 2.1978-3.1229 3.6906-6.7756 2.7354-1.2016-0.31422-2.256 0.0147-2.5563 0.79732-0.86762 2.261-5.0448 2.6336-8.9022 0.79419-3.4389-1.6399-3.684-1.6402-4.5981-0.007-1.3078 2.3369-4.4115 2.1694-8.6794-0.46826-2.8859-1.7836-3.4315-1.8866-2.9191-0.55119 0.71351 1.8594-2.0019 3.1677-4.5472 2.191-1.0984-0.42148-1.6591 0.0907-1.8911 1.7273-0.29012 2.0466-0.8109 2.2946-4.3296 2.0615-2.1999-0.14573-5.0035 0.26309-6.2302 0.90849-1.921 1.0107-3.3311 0.59907-10.166-2.9674-22.21-11.59-33.87-12.93-71.09-8.14-15.164 1.9508-22.611 2.0775-30.14 0.51243-6.8816-1.4304-10.104-2.7884-20.493-8.6363l-4.1332-2.3266-5.8668 6.4086c-3.2267 3.5247-6.9153 7.5008-8.1969 8.8357-3.572 3.7207-7.5329 11.703-11.004 22.176-3.5545 10.726-3.9869 12.674-8.2123 37-1.7791 10.243-3.9384 19.366-5.2069 22-9.3789 19.474-45.357 37.055-76.534 37.398-10.567 0.11618-10.385-0.0138-12.245 8.7514-1.4746 6.9488-0.06093 14.248 4.9875 25.75 5.256 11.98 2.324 25.1-5.613 25.1-0.741 0-1.347 0.44-1.347 0.97 0 1.2555 5.5476 4.1447 6.3732 3.3191 0.345-0.34 0.627-0.1 0.627 0.54 0 0.65 0.48 1.17 1.067 1.17 4.5909 0 9.5394 7.2976 14.473 21.344 3.6542 10.404 8.3007 17.55 13.71 21.088 3.2495 2.1251 3.5152 4.0885 0.75327 5.5666-1.0982 0.58774-2.9177 2.8738-4.0433 5.0802-7.1594 14.034-20.373 19.85-35.26 15.523-12.636-3.6734-14.799-17.738-4.5342-29.492 4.6951-5.3764 4.7645-7.0598 0.48935-11.856-11.154-12.514-11.816-25.835-1.5385-30.958 12.396-6.1795 14.486-14.565 7.4921-30.054-6.0288-13.352-5.651-21.881 1.3453-30.369l2.9382-3.5646 10.304-0.60891c18.323-1.08 42.265-9.81 60.304-21.99 10.031-6.7703 12.162-10.751 13.638-25.484 4.6718-46.618 9.8957-59.139 33.246-79.687l6.7717-5.9588-4.328-4.1759c-2.37-2.295-6.12-6.682-8.32-9.748-4.5687-6.3656-5.244-6.7149-5.6836-2.9397-1.1367 9.7629-14.812 8.9554-23.661-1.3972-25.253-29.538 2.46-58.165 66.98-69.196 22.77-3.8923 31.18-4.567 54.86-4.3997 23.65 0.16715 44.58 2.7269 107.5 13.147 9.9 1.6394 24.075 3.966 31.5 5.1701 76.953 12.48 124.09 39.289 144.97 82.459 3.8702 7.9991 4.4648 9.4614 9.5543 23.5 3.0677 8.4616 4.4729 22.259 2.6197 25.722-0.89988 1.6815-0.46021 3.854 2.3125 11.427 3.581 9.7807 13.001 42.264 16.487 56.851 1.7211 7.2021 4.3328 24.226 10.125 66 3.5563 25.647 1.9081 70.944-3.4205 94-1.3347 5.775-2.7093 12.421-3.0548 14.769-2.296 15.605-15.004 44.466-26.741 60.731-18.089 25.068-22.092 35.972-16.719 45.534 3.6696 6.5292 6.5062 6.2527 12.192-1.1883 6.7177-8.7908 6.9957-11.492 1.3701-13.31-6.3092-2.0394-3.863-10.234 4.1195-13.8 24.593-10.987 53.734 6.9615 55.893 34.426 1.378 17.527-26.393 65.447-47.507 81.974-3.6893 2.8879-8.7327 7.1394-11.208 9.4477-17.493 16.315-33.512 23.255-66.849 28.962-21.758 3.7245-39.069 4.912-50.52 3.4656zm-53.63-47.54c0-0.63124-6.033-12.753-6.7046-13.471-0.25716-0.275-1.3288 0.56235-2.3815 1.8608-4.23 5.22-1.05 12.14 5.59 12.14 1.925 0 3.5-0.23783 3.5-0.52852zm-10-22.13c0-1.74-3.45-11.34-4.07-11.34-1.1097 0-1.9953 4.6407-1.2729 6.6705 1.2108 3.4021 5.3471 7.0126 5.3471 4.6674zm-142.69 36.21c-3.1897-1.3993-5.9132-5.2953-6.3254-9.0483-0.51485-4.6881 0.24966-6.5624 4.4321-10.866 3.8673-3.9792 4.1861-4.624 2.5439-5.1452-7.1424-2.2669-8.8038-10.886-3.1822-16.507l3.7832-3.7832-2.7832-3.1149c-7.6488-8.5605 3.7744-24.244 14.647-20.11 3.3141 1.26 3.3097 3.0264-0.008 3.0264-9.8616 0-11.102 15.068-1.3686 16.625 5.1918 0.83021 4.9587 1.3476-2.1181 4.7008-11.59 5.5-11.21 17.68 0.55 17.68 4.2868 0 3.8938 1.2533-1.1426 3.6432-8.967 4.2551-9.9683 19.357-1.2835 19.357 5.4517 0 4.3063 3.2078-1.556 4.3574-1.6939 0.33219-4.3867-0.02-6.1853-0.80904zm-20.96-0.51758c-8.1196-3.3636-9.7137-13.84-2.9952-19.684l4.36-3.7927-3.6858-1.6502c-7.8462-3.5128-8.7964-12.118-2.0446-18.516l3.8356-3.6346-2.6626-2.2915c-3.6822-3.1691-3.7298-11.157-0.0896-15.057 5.1415-5.5083 15.479-8.3221 16.718-4.5506 0.31829 0.96841-0.13977 1.1692-1.6057 0.70397-2.2573-0.71644-7.9513 3.7264-8.2548 6.4411-0.83955 7.5079 1.8809 11 8.5692 11 7.2997 0 3.9018 4.2725-4.4616 5.6098-11.62 1.86-8.87 21.39 3.03 21.39 2.2487 0 0.67185 1.9366-2.4031 2.9515-10.761 3.5515-11.06 16.999-0.4161 18.701 2.1414 0.34243 3.528 0.9643 3.0813 1.3819-1.3632 1.2744-8.6796 1.9394-10.957 0.99591zm43.033-0.046c-8.7163-3.3766-9.0198-16.041-0.5201-21.701l3.368-2.2431-2.6176-0.99519c-6.8292-2.5965-8.2527-10.646-2.8398-16.059l3.7787-3.7786-2.2787-3.3255c-3.1754-4.6342-2.9558-9.0411 0.65558-13.154 4.0931-4.6617 9.6297-7.5638 11.281-5.9127 1.0008 1.0008 0.79655 1.3693-1.0222 1.8449-7.941 2.0766-5.8963 13.851 2.8609 16.474 5.9904 1.7948 5.1978 3.2436-2.9055 5.3107-10.702 2.73-9.5652 14.555 1.3989 14.555 1.3491 0 2.453 0.585 2.453 1.3 0 1.8197-2.0807 3.7-4.0942 3.7-0.93184 0-3.0918 1.3055-4.8 2.9012-6.6484 6.2105-2.2573 15.099 7.4593 15.099 3.1704 0 3.1466 2.295-0.0498 4.8093-2.6049 2.049-8.4176 2.6124-12.127 1.1754zm27.797 0.0258c-9.3705-2.2179-12.851-14.068-5.8396-19.883 2.2368-1.8551 2.0814-3.6005-0.47172-5.2956-3.8282-2.5418-3.8201-10.684 0.0149-15.052 3.7544-4.276 3.7575-4.3146 0.57791-7.0779-5.6393-4.901-3.4361-13.636 4.4547-17.662 4.8686-2.4838 10.079-2.7326 10.079-0.48132 0 0.85746-0.34196 1.3477-0.75991 1.0894-1.8313-1.1318-7.3134 2.4374-8.9207 5.8079-2.3862 5.0039 0.32894 8.8917 6.5305 9.3512 6.9686 0.51634 5.1028 3.8856-3.1287 5.6496-4.2433 0.90933-6.6469 6.4814-4.3246 10.026 1.9624 2.995 6.0144 4.8391 8.7354 3.9755 3.4508-1.0952 1.9684 1.8308-3.6321 7.1693-8.5226 8.1238-6.1678 17.373 4.4231 17.373 4.9194 0 5.197 1.3465 0.82692 4.011-3.5211 2.1468-3.6532 2.1623-8.5653 0.99962zm21.231-1.432c-3.9-1.7-7.41-6.11-7.41-9.33 0-2.66 3.84-10.25 5.18-10.25 0.45 0 0.82-0.68 0.82-1.5 0-0.825-0.38429-1.5-0.85398-1.5-6.3857 0-8.083-11.263-2.5335-16.812 1.9869-1.9869 3.1345-3.7718 2.5502-3.9666-10.86-3.62-6.11-21.22 5.72-21.22 2.2647 0 4.1176 0.45 4.1176 1s-0.92045 1-2.0454 1c-3.1018 0-6.9546 4.4067-6.9546 7.9546 0 4.6421 3.3137 7.4008 8.1161 6.7567 2.72-0.36 3.89-0.14 3.89 0.73 0 1.71-3.3 4.56-5.28 4.56-2.74 0-6.72 4.8-6.72 8.1 0 5.841 3.8758 10.537 8.25 9.9957 2.3874-0.29542 2.2222 1.6245-0.20608 2.3952-10.366 3.2899-6.4102 21.935 4.0719 19.194 2.6398-0.69033 3.5638 1.3499 1.3458 2.9717-2.3326 1.7056-8.0407 1.671-12.046-0.0731zm-115.43-1.44c-7.8414-4.1781-7.8411-13.549 0.00051-19.133 3.24-2.31 3.91-4.01 1.57-4.01-8.9112 0-7.4945-19.661 1.6252-22.556 2.4341-0.77257 2.3002-1.7586-0.40151-2.957-12.163-5.3952-6.2852-20.867 8.4661-22.284 6.0088-0.57737 6.3362 1.1824 0.64359 3.4601-9.1513 3.6616-8.2855 14.337 1.1628 14.337 3.3998 0 2.1242 2.7039-3.0766 6.5217-9.7193 7.1346-10.343 13.623-1.9502 20.305l4.9512 3.9422-2.7357 1.136c-9.63 3.99-9.85 18.09-0.29 18.09 3.4832 0 3.8373 0.9734 1.2167 3.345-2.4072 2.1785-6.8709 2.098-11.187-0.20158zm136.89-0.82714c-7.3312-4.5499-7.5154-13.519-0.39278-19.122 2.9661-2.3332 3.1703-3.1861 0.76998-3.2166-7.5205-0.0956-10.346-10.118-4.5-15.962l3.75-3.7487-2.6877-2.4614c-3.779-3.4608-4.534-7.3102-2.2616-11.53 2.1791-4.0463 10.024-9.1016 11.63-7.4949 0.73162 0.73162 0.0938 1.5425-2.1095 2.6819-8.2962 4.2902-5.6603 13.537 3.8589 13.537 2.0708 0 2.9897 0.58664 3.4047 2.1735 0.74131 2.8348 0.0489 3.8265-2.6716 3.8265-4.9721 0-9.21 5.2352-8.1489 10.066 0.67352 3.0666 7.8422 8.9335 10.916 8.9335 0.8634 0 1.5698 0.45 1.5698 1s-1.3704 1-3.0454 1c-4.2224 0-7.9546 3.9028-7.9546 8.3182 0 4.62 4.0406 8.6818 8.6364 8.6818 2.2873 0 3.3636 0.46872 3.3636 1.4648 0 3.5503-9.4041 4.7827-14.127 1.8515zm22.902-3.8751c-5.73-3.1-6.19-17.43-0.55-17.43 1.7992 0 0.58693-1.9855-1.9565-3.2045-6.0114-2.8812-6.3888-9.4322-0.85516-14.843l3.21-3.1387-3.4349-3.4349c-6.7609-6.7609 0.66028-21.539 10.139-20.19 2.9775 0.42389 2.7605 2.2326-0.31768 2.6483-5.474 0.73934-8.5241 6.4461-5.983 11.194 1.088 2.033 8.2751 4.4539 10.588 3.5664 0.82575-0.31687 1.3952 0.10064 1.3952 1.0229 0 1.7627-3.8297 5.2952-5.7954 5.3456-8.1115 0.20832-7.6338 16.033 0.48401 16.033 2.9965 0 2.9817 2.3276-0.0297 4.6964-6.76 5.3-5.35 15.3 2.14 15.3 2.9429 0 2.7626 1.416-0.3615 2.8395-3.3088 1.5076-5.3374 1.4145-8.6778-0.39828zm-142.62-78.49c-1.06-46.8-23.02-62.15-96.65-67.55-14.825-1.08-33.647-4.89-44.776-9.05-21.971-8.22-30.038-32.21-14.868-44.23 6.0087-4.759 7.6585-2.8973 2.128 2.4013-16.026 15.354 0.50139 30.791 39.516 36.911 8.8 1.3803 24.775 3.89 35.5 5.5771 52.291 8.2255 71.676 18.744 78.868 42.797 3.1097 10.4 4.7321 25.2 3.636 33.17-0.93583 6.8043-3.2033 6.7803-3.3568-0.0355zm83.122-42.418c-6.27-2.73-9.28-12.38-5.77-18.52 1.922-3.3623 1.8632-3.692-0.77771-4.3548-16.17-4.0584-8.5283-26.344 8.712-25.407l4.8298 0.2623 1.6102-4.5c11.113-31.058 22.409-41.487 12.288-11.345-4.5367 13.512-6.6213 21.062-5.9328 21.487 0.60327 0.37284-0.23813 1.328-1.9494 2.2129-10.352 5.3534-6.8561 18.466 4.5851 17.196 4.8628-0.53993 5.2972-0.42968 4.6366 1.1766-2.597 6.3136 0.11216 7.3059 5.9508 2.1796 7.3086-6.417 6.7414-14.227-1.2806-17.634-2.0197-0.85769-3.1103-1.7574-2.4234-1.9994 0.68684-0.24199 2.9309 0.38483 4.9868 1.393 13.775 6.7544 8.5014 26.923-6.5018 24.867l-4.7338-0.64866-0.21991 3.1867c-0.57787 8.3736-10.088 13.889-18.01 10.445zm14.57-11.064c1.5616-3.4274 1.5523-3.4479-1.5895-3.4884-1.5125-0.0195-3.875-0.67854-5.25-1.4646-3.5484-2.0284-4-1.8672-4 1.4286 0 6.0474 8.4396 8.7915 10.839 3.5244zm-13.84-20.82c0-0.74825 1.0908-2.9679 2.424-4.9325 2.7616-4.0694 2.4621-7.2346-0.76649-8.1014-5.4313-1.458-9.6573 6.6934-6.2031 11.965 1.7168 2.6202 4.5456 3.2853 4.5456 1.0688zm-97 6.7991c-12.598-2.027-28.07-5.1751-28.743-5.8486-1.2373-1.2373 0.61199-1.2359 12.743 0.009 40.928 4.2018 65.296-2.147 96.205-25.065 2.5878-1.9188 4.9563-3.0823 5.2633-2.5855 0.60765 0.9832-10.363 10.659-16.901 14.907-2.237 1.4533-4.5173 3.1555-5.0673 3.7827-10.164 11.591-40.092 18.566-63.5 14.8zm118.02-17.99c0.0388-4.9795 7.3193-40.158 8.5448-41.287 1.3172-1.2136-0.52913 12.035-3.7319 26.778-2.9265 13.472-4.8499 19.27-4.8129 14.509zm-223.02-152.95c-2.752-2.8393-4.1396-3.5-7.3512-3.5-3.8456 0-3.9089-0.0551-2.2148-1.9272 4.3386-4.7941 13.315-3.1538 17.014 3.1091 3.591 6.08-2.089 7.85-7.448 2.32zm78.775-25.991c-6.3621-3.6115-4.3114-9.8336 4.0685-12.344 2.1791-0.65288 4.9527-1.9892 6.1634-2.9696l2.2013-1.7825-6.0197-3.7156c-23.717-14.639-24.01-36.099-0.36448-26.631 10.692 4.2814 19.838 1.3009 21.675-7.0636 0.92167-4.1963 2.5006-4.7502 2.5006-0.87728 0 4.8393-3.6226 11.54-7.0619 13.062-3.8302 1.6954-3.788 1.7948 2.2584 5.3123 13.686 7.9617 26.22 23.657 20.054 25.11-1.5125 0.35633-3.875 1.6433-5.25 2.8599-9.6001 8.4943-32.228 13.579-40.225 9.0396zm97.22-43.62c0-5.486-16.971-26.036-27.073-32.782-9.4872-6.3353-14.918-6.2784-40.652 0.42591-19.794 5.1569-27.09 3.9363-23.504-3.9328 4.9035-10.762 47.242-20.903 61.396-14.706 12.807 5.6076 38.975 49.267 31.083 51.859-0.6875 0.22575-1.25-0.16337-1.25-0.86471z"/>
</svg>
